<svg width="100" height="100" viewBox="0 0 100 100" fill="none" xmlns="http://www.w3.org/2000/svg">
<g clip-path="url(#clip0_1_6)">
<path d="M2.75711 81.581V74.692C7.23911 74.692 10.5038 73.779 12.5511 71.953C14.6538 70.127 15.7051 66.9453 15.7051 62.408V24.56H22.9261V62.408C22.9261 66.1707 22.3174 69.5183 21.1001 72.451C19.9381 75.3283 17.8908 77.5693 14.9581 79.174C12.0808 80.7787 8.01378 81.581 2.75711 81.581ZM47.9325 24.56L65.1135 66.392L82.3775 24.56H90.5945V81H83.5395V56.847L84.4525 35.101L68.2675 74.36H61.4615L45.6085 34.935L46.5215 56.847V81H39.4665V24.56H47.9325Z" fill="#1E1E1E"/>
</g>
<defs>
<clipPath id="clip0_1_6">
<rect width="100" height="100" fill="white"/>
</clipPath>
</defs>
</svg>
